<svg width="96" height="64" viewBox="0 0 96 64" xmlns="http://www.w3.org/2000/svg">
  <rect width="96" height="64" fill="#B31942"/>
  <g fill="#fff">
    <rect y="8" width="96" height="4"/>
    <rect y="16" width="96" height="4"/>
    <rect y="24" width="96" height="4"/>
    <rect y="32" width="96" height="4"/>
    <rect y="40" width="96" height="4"/>
    <rect y="48" width="96" height="4"/>
    <rect y="56" width="96" height="4"/>
  </g>
  <rect width="38" height="28" fill="#0A3161"/>
  <g fill="#fff">
    <circle cx="6" cy="6" r="2"/>
    <circle cx="14" cy="6" r="2"/>
    <circle cx="22" cy="6" r="2"/>
    <circle cx="30" cy="6" r="2"/>
    <circle cx="10" cy="12" r="2"/>
    <circle cx="18" cy="12" r="2"/>
    <circle cx="26" cy="12" r="2"/>
    <circle cx="6" cy="18" r="2"/>
    <circle cx="14" cy="18" r="2"/>
    <circle cx="22" cy="18" r="2"/>
    <circle cx="30" cy="18" r="2"/>
    <circle cx="10" cy="24" r="2"/>
    <circle cx="18" cy="24" r="2"/>
    <circle cx="26" cy="24" r="2"/>
  </g>
</svg>
